PathFileType	4	(X/Y/Z)	C:\Users\italobelli\Desktop\GitHub\PTbot_officialCBL\Personal_Results\SHRUG21_noisy1.trc
DataRate	CameraRate	NumFrames	NumMarkers	Units	OrigDataRate	OrigDataStartFrame	OrigNumFrames
112.250000	112.250000	47	9	m	112.250000	1	450
Frame#	Time		gu		centelbow		EpL		centpxt8		centijc7		ij		ts		aa		ai
			X1	Y1	Z1	X2	Y2	Z2	X3	Y3	Z3	X4	Y4	Z4	X5	Y5	Z5	X6	Y6	Z6	X7	Y7	Z7	X8	Y8	Z8	X9	Y9	Z9

1	0	-0.076767	-0.01932	0.16549	-0.12499	-0.25887	0.18692	-0.10801	-0.25613	0.21419	-0.046816	-0.15316	-0.008669	-0.046816	0.031938	-0.008669	0	0	0	-0.13511	0.027397	0.054673	-0.10346	0.017953	0.16928	-0.15834	-0.083681	0.05736
2	0.0089087	-0.076765	-0.019335	0.16555	-0.12497	-0.25885	0.18704	-0.10798	-0.25611	0.21431	-0.046816	-0.15316	-0.008669	-0.046816	0.031938	-0.008669	0	0	0	-0.1351	0.027367	0.054699	-0.10344	0.017926	0.1693	-0.15833	-0.083712	0.057389
3	0.017817	-0.076764	-0.01935	0.16561	-0.12494	-0.25883	0.18717	-0.10796	-0.25609	0.21444	-0.046816	-0.15316	-0.008669	-0.046816	0.031938	-0.008669	0	0	0	-0.13509	0.027339	0.054723	-0.10343	0.017901	0.16933	-0.15832	-0.08374	0.057416
4	0.026726	-0.076765	-0.019364	0.16567	-0.12491	-0.25882	0.18729	-0.10793	-0.25608	0.21456	-0.046816	-0.15316	-0.008669	-0.046816	0.031938	-0.008669	0	0	0	-0.13509	0.027314	0.054747	-0.10341	0.017878	0.16935	-0.15831	-0.083766	0.057442
5	0.035635	-0.076766	-0.019378	0.16573	-0.12489	-0.2588	0.1874	-0.10791	-0.25606	0.21467	-0.046816	-0.15316	-0.008669	-0.046816	0.031938	-0.008669	0	0	0	-0.13508	0.02729	0.054769	-0.1034	0.017857	0.16937	-0.1583	-0.08379	0.057466
6	0.044543	-0.076768	-0.019391	0.16579	-0.12486	-0.25878	0.18752	-0.10788	-0.25604	0.21479	-0.046816	-0.15316	-0.008669	-0.046816	0.031938	-0.008669	0	0	0	-0.13507	0.027269	0.054791	-0.10339	0.017839	0.16939	-0.15829	-0.083811	0.057489
7	0.053452	-0.076771	-0.019404	0.16585	-0.12484	-0.25877	0.18763	-0.10785	-0.25603	0.2149	-0.046816	-0.15316	-0.008669	-0.046816	0.031938	-0.008669	0	0	0	-0.13506	0.027249	0.054811	-0.10338	0.017822	0.16941	-0.15828	-0.083831	0.05751
8	0.062361	-0.076775	-0.019416	0.16591	-0.12481	-0.25876	0.18774	-0.10783	-0.25602	0.21501	-0.046816	-0.15316	-0.008669	-0.046816	0.031938	-0.008669	0	0	0	-0.13505	0.027231	0.05483	-0.10337	0.017807	0.16943	-0.15827	-0.083848	0.05753
9	0.071269	-0.076779	-0.019427	0.16597	-0.12478	-0.25874	0.18785	-0.1078	-0.256	0.21512	-0.046816	-0.15316	-0.008669	-0.046816	0.031938	-0.008669	0	0	0	-0.13504	0.027216	0.054849	-0.10336	0.017794	0.16944	-0.15825	-0.083863	0.057548
10	0.080178	-0.076785	-0.019438	0.16603	-0.12475	-0.25873	0.18795	-0.10777	-0.25599	0.21522	-0.046816	-0.15316	-0.008669	-0.046816	0.031938	-0.008669	0	0	0	-0.13504	0.027202	0.054866	-0.10335	0.017782	0.16946	-0.15824	-0.083876	0.057564
11	0.089087	-0.076791	-0.019448	0.16609	-0.12473	-0.25872	0.18806	-0.10774	-0.25598	0.21533	-0.046816	-0.15316	-0.008669	-0.046816	0.031938	-0.008669	0	0	0	-0.13503	0.02719	0.054883	-0.10334	0.017772	0.16948	-0.15823	-0.083888	0.057579
12	0.097996	-0.076798	-0.019458	0.16615	-0.1247	-0.25871	0.18816	-0.10772	-0.25597	0.21543	-0.046816	-0.15316	-0.008669	-0.046816	0.031938	-0.008669	0	0	0	-0.13502	0.02718	0.054899	-0.10333	0.017764	0.16949	-0.15822	-0.083897	0.057593
13	0.1069	-0.076806	-0.019468	0.16621	-0.12467	-0.2587	0.18825	-0.10769	-0.25596	0.21552	-0.046816	-0.15316	-0.008669	-0.046816	0.031938	-0.008669	0	0	0	-0.13501	0.027172	0.054913	-0.10333	0.017758	0.16951	-0.15821	-0.083905	0.057606
14	0.11581	-0.076815	-0.019477	0.16626	-0.12464	-0.25869	0.18835	-0.10766	-0.25595	0.21562	-0.046816	-0.15316	-0.008669	-0.046816	0.031938	-0.008669	0	0	0	-0.135	0.027166	0.054927	-0.10332	0.017753	0.16952	-0.15821	-0.08391	0.057617
15	0.12472	-0.076824	-0.019486	0.16632	-0.12461	-0.25868	0.18844	-0.10763	-0.25594	0.21571	-0.046816	-0.15316	-0.008669	-0.046816	0.031938	-0.008669	0	0	0	-0.135	0.027161	0.05494	-0.10332	0.01775	0.16953	-0.1582	-0.083914	0.057626
16	0.13363	-0.076835	-0.019494	0.16638	-0.12458	-0.25867	0.18853	-0.1076	-0.25593	0.2158	-0.046816	-0.15316	-0.008669	-0.046816	0.031938	-0.008669	0	0	0	-0.13499	0.027158	0.054953	-0.10332	0.017748	0.16955	-0.15819	-0.083916	0.057635
17	0.14254	-0.076845	-0.019502	0.16643	-0.12455	-0.25866	0.18862	-0.10758	-0.25592	0.21589	-0.046816	-0.15316	-0.008669	-0.046816	0.031938	-0.008669	0	0	0	-0.13498	0.027156	0.054964	-0.10331	0.017747	0.16956	-0.15818	-0.083917	0.057642
18	0.15145	-0.076857	-0.019509	0.16649	-0.12452	-0.25866	0.1887	-0.10755	-0.25591	0.21597	-0.046816	-0.15316	-0.008669	-0.046816	0.031938	-0.008669	0	0	0	-0.13497	0.027157	0.054975	-0.10331	0.017748	0.16957	-0.15817	-0.083915	0.057648
19	0.16036	-0.076869	-0.019516	0.16654	-0.12449	-0.25865	0.18879	-0.10752	-0.25591	0.21606	-0.046816	-0.15316	-0.008669	-0.046816	0.031938	-0.008669	0	0	0	-0.13497	0.027159	0.054984	-0.10331	0.01775	0.16958	-0.15816	-0.083913	0.057653
20	0.16927	-0.076881	-0.019523	0.1666	-0.12446	-0.25864	0.18886	-0.10749	-0.2559	0.21614	-0.046816	-0.15316	-0.008669	-0.046816	0.031938	-0.008669	0	0	0	-0.13496	0.027162	0.054994	-0.10331	0.017754	0.16959	-0.15815	-0.083908	0.057656
21	0.17817	-0.076895	-0.01953	0.16665	-0.12443	-0.25864	0.18894	-0.10746	-0.25589	0.21621	-0.046816	-0.15316	-0.008669	-0.046816	0.031938	-0.008669	0	0	0	-0.13495	0.027167	0.055002	-0.10331	0.017758	0.1696	-0.15814	-0.083902	0.057659
22	0.18708	-0.076908	-0.019536	0.1667	-0.1244	-0.25863	0.18902	-0.10743	-0.25589	0.21629	-0.046816	-0.15316	-0.008669	-0.046816	0.031938	-0.008669	0	0	0	-0.13494	0.027173	0.05501	-0.10331	0.017764	0.16961	-0.15813	-0.083895	0.05766
23	0.19599	-0.076923	-0.019542	0.16675	-0.12437	-0.25863	0.18909	-0.1074	-0.25588	0.21636	-0.046816	-0.15316	-0.008669	-0.046816	0.031938	-0.008669	0	0	0	-0.13494	0.027181	0.055017	-0.10331	0.017771	0.16962	-0.15812	-0.083886	0.05766
24	0.2049	-0.076937	-0.019547	0.1668	-0.12434	-0.25863	0.18916	-0.10737	-0.25588	0.21643	-0.046816	-0.15316	-0.008669	-0.046816	0.031938	-0.008669	0	0	0	-0.13493	0.027191	0.055023	-0.10331	0.017779	0.16962	-0.15811	-0.083876	0.057659
25	0.21381	-0.076953	-0.019552	0.16685	-0.12431	-0.25862	0.18922	-0.10735	-0.25587	0.2165	-0.046816	-0.15316	-0.008669	-0.046816	0.031938	-0.008669	0	0	0	-0.13492	0.027201	0.055029	-0.10331	0.017788	0.16963	-0.15811	-0.083864	0.057658
26	0.22272	-0.076968	-0.019558	0.1669	-0.12428	-0.25862	0.18928	-0.10732	-0.25587	0.21656	-0.046816	-0.15316	-0.008669	-0.046816	0.031938	-0.008669	0	0	0	-0.13492	0.027213	0.055034	-0.10332	0.017797	0.16964	-0.1581	-0.083851	0.057655
27	0.23163	-0.076985	-0.019562	0.16695	-0.12425	-0.25861	0.18935	-0.10729	-0.25586	0.21662	-0.046816	-0.15316	-0.008669	-0.046816	0.031938	-0.008669	0	0	0	-0.13491	0.027227	0.055039	-0.10332	0.017808	0.16964	-0.15809	-0.083837	0.057651
28	0.24053	-0.077001	-0.019567	0.167	-0.12421	-0.25861	0.1894	-0.10726	-0.25586	0.21668	-0.046816	-0.15316	-0.008669	-0.046816	0.031938	-0.008669	0	0	0	-0.1349	0.027241	0.055043	-0.10332	0.017819	0.16965	-0.15808	-0.083821	0.057646
29	0.24944	-0.077018	-0.019571	0.16704	-0.12418	-0.25861	0.18946	-0.10723	-0.25586	0.21673	-0.046816	-0.15316	-0.008669	-0.046816	0.031938	-0.008669	0	0	0	-0.1349	0.027257	0.055047	-0.10333	0.017832	0.16965	-0.15807	-0.083805	0.057641
30	0.25835	-0.077035	-0.019576	0.16709	-0.12415	-0.25861	0.18951	-0.1072	-0.25585	0.21679	-0.046816	-0.15316	-0.008669	-0.046816	0.031938	-0.008669	0	0	0	-0.13489	0.027274	0.05505	-0.10333	0.017844	0.16966	-0.15807	-0.083787	0.057634
31	0.26726	-0.077053	-0.01958	0.16713	-0.12412	-0.2586	0.18956	-0.10717	-0.25585	0.21684	-0.046816	-0.15316	-0.008669	-0.046816	0.031938	-0.008669	0	0	0	-0.13488	0.027292	0.055052	-0.10334	0.017858	0.16966	-0.15806	-0.083768	0.057627
32	0.27617	-0.077071	-0.019584	0.16718	-0.12409	-0.2586	0.18961	-0.10714	-0.25585	0.21688	-0.046816	-0.15316	-0.008669	-0.046816	0.031938	-0.008669	0	0	0	-0.13488	0.027312	0.055054	-0.10334	0.017872	0.16967	-0.15805	-0.083748	0.057619
33	0.28508	-0.077089	-0.019588	0.16722	-0.12406	-0.2586	0.18965	-0.10711	-0.25584	0.21693	-0.046816	-0.15316	-0.008669	-0.046816	0.031938	-0.008669	0	0	0	-0.13487	0.027332	0.055056	-0.10335	0.017887	0.16967	-0.15804	-0.083727	0.05761
34	0.29399	-0.077108	-0.019591	0.16726	-0.12402	-0.2586	0.18969	-0.10708	-0.25584	0.21697	-0.046816	-0.15316	-0.008669	-0.046816	0.031938	-0.008669	0	0	0	-0.13486	0.027354	0.055057	-0.10336	0.017902	0.16967	-0.15804	-0.083705	0.0576
35	0.3029	-0.077127	-0.019595	0.1673	-0.12399	-0.2586	0.18973	-0.10705	-0.25584	0.21701	-0.046816	-0.15316	-0.008669	-0.046816	0.031938	-0.008669	0	0	0	-0.13486	0.027377	0.055058	-0.10336	0.017918	0.16968	-0.15803	-0.083683	0.05759
36	0.3118	-0.077146	-0.019598	0.16734	-0.12396	-0.2586	0.18976	-0.10702	-0.25584	0.21705	-0.046816	-0.15316	-0.008669	-0.046816	0.031938	-0.008669	0	0	0	-0.13485	0.0274	0.055058	-0.10337	0.017934	0.16968	-0.15802	-0.083659	0.057579
37	0.32071	-0.077165	-0.019602	0.16738	-0.12393	-0.2586	0.1898	-0.10699	-0.25584	0.21708	-0.046816	-0.15316	-0.008669	-0.046816	0.031938	-0.008669	0	0	0	-0.13485	0.027425	0.055058	-0.10338	0.01795	0.16968	-0.15802	-0.083634	0.057567
38	0.32962	-0.077184	-0.019605	0.16741	-0.12389	-0.25859	0.18982	-0.10696	-0.25583	0.21711	-0.046816	-0.15316	-0.008669	-0.046816	0.031938	-0.008669	0	0	0	-0.13484	0.02745	0.055058	-0.10339	0.017967	0.16969	-0.15801	-0.083609	0.057554
39	0.33853	-0.077204	-0.019608	0.16745	-0.12386	-0.25859	0.18985	-0.10693	-0.25583	0.21714	-0.046816	-0.15316	-0.008669	-0.046816	0.031938	-0.008669	0	0	0	-0.13484	0.027477	0.055057	-0.1034	0.017984	0.16969	-0.158	-0.083583	0.057541
40	0.34744	-0.077224	-0.019612	0.16748	-0.12383	-0.25859	0.18987	-0.1069	-0.25583	0.21716	-0.046816	-0.15316	-0.008669	-0.046816	0.031938	-0.008669	0	0	0	-0.13483	0.027504	0.055056	-0.1034	0.018001	0.16969	-0.158	-0.083556	0.057528
41	0.35635	-0.077243	-0.019615	0.16752	-0.1238	-0.25859	0.18989	-0.10687	-0.25583	0.21718	-0.046816	-0.15316	-0.008669	-0.046816	0.031938	-0.008669	0	0	0	-0.13482	0.027532	0.055055	-0.10341	0.018018	0.16969	-0.15799	-0.083529	0.057513
42	0.36526	-0.077263	-0.019618	0.16755	-0.12376	-0.25859	0.18991	-0.10684	-0.25583	0.2172	-0.046816	-0.15316	-0.008669	-0.046816	0.031938	-0.008669	0	0	0	-0.13482	0.027561	0.055053	-0.10342	0.018036	0.16969	-0.15798	-0.083501	0.057499
43	0.37416	-0.077283	-0.019622	0.16758	-0.12373	-0.25859	0.18992	-0.10681	-0.25582	0.21722	-0.046816	-0.15316	-0.008669	-0.046816	0.031938	-0.008669	0	0	0	-0.13481	0.027591	0.055051	-0.10343	0.018053	0.16969	-0.15798	-0.083472	0.057483
44	0.38307	-0.077303	-0.019625	0.16761	-0.1237	-0.25859	0.18994	-0.10678	-0.25582	0.21723	-0.046816	-0.15316	-0.008669	-0.046816	0.031938	-0.008669	0	0	0	-0.13481	0.027622	0.055049	-0.10344	0.01807	0.1697	-0.15797	-0.083443	0.057468
45	0.39198	-0.077323	-0.019629	0.16763	-0.12367	-0.25859	0.18994	-0.10675	-0.25582	0.21724	-0.046816	-0.15316	-0.008669	-0.046816	0.031938	-0.008669	0	0	0	-0.1348	0.027653	0.055047	-0.10345	0.018087	0.1697	-0.15797	-0.083414	0.057452
46	0.40089	-0.077343	-0.019632	0.16766	-0.12363	-0.25859	0.18995	-0.10672	-0.25582	0.21724	-0.046816	-0.15316	-0.008669	-0.046816	0.031938	-0.008669	0	0	0	-0.1348	0.027685	0.055045	-0.10346	0.018105	0.1697	-0.15796	-0.083384	0.057435
47	0.4098	-0.077363	-0.019636	0.16768	-0.1236	-0.25859	0.18995	-0.10669	-0.25582	0.21725	-0.046816	-0.15316	-0.008669	-0.046816	0.031938	-0.008669	0	0	0	-0.1348	0.027717	0.055043	-0.10347	0.018121	0.1697	-0.15796	-0.083353	0.057418
